<svg width="28" height="28" viewBox="0 0 28 28" fill="inherit" xmlns="http://www.w3.org/2000/svg">
<path opacity="0.2" d="M14 17.5C17.866 17.5 21 14.366 21 10.5C21 6.63401 17.866 3.5 14 3.5C10.134 3.5 7 6.63401 7 10.5C7 14.366 10.134 17.5 14 17.5Z" fill="#EAEAEA"/>
<path d="M25.3641 23.1875C23.7315 20.375 21.1181 18.264 18.0251 17.2594C19.5076 16.3778 20.6597 15.0338 21.3044 13.4339C21.9491 11.8341 22.0506 10.0668 21.5935 8.40358C21.1363 6.74039 20.1457 5.27329 18.7739 4.22766C17.4021 3.18204 15.725 2.61572 14.0001 2.61572C12.2752 2.61572 10.598 3.18204 9.22622 4.22766C7.85441 5.27329 6.86384 6.74039 6.40669 8.40358C5.94954 10.0668 6.0511 11.8341 6.69576 13.4339C7.34042 15.0338 8.49252 16.3778 9.97508 17.2594C6.88206 18.264 4.26869 20.375 2.63601 23.1875C2.56753 23.2869 2.52034 23.3993 2.4974 23.5178C2.47446 23.6362 2.47627 23.7582 2.50272 23.8759C2.52916 23.9936 2.57967 24.1046 2.65107 24.2019C2.72247 24.2991 2.81322 24.3806 2.91761 24.4411C3.022 24.5016 3.13777 24.5399 3.25767 24.5535C3.37756 24.5671 3.49897 24.5558 3.61428 24.5203C3.72958 24.4847 3.83629 24.4257 3.92769 24.3469C4.01909 24.2681 4.09321 24.1713 4.14539 24.0625C5.1455 22.3344 6.58247 20.8996 8.31215 19.9021C10.0418 18.9047 12.0034 18.3796 14.0001 18.3796C15.9968 18.3796 17.9583 18.9047 19.688 19.9021C21.4177 20.8996 22.8547 22.3344 23.8548 24.0625C23.9069 24.1713 23.9811 24.2681 24.0725 24.3469C24.1639 24.4257 24.2706 24.4847 24.3859 24.5203C24.5012 24.5558 24.6226 24.5671 24.7425 24.5535C24.8624 24.5399 24.9782 24.5016 25.0826 24.4411C25.1869 24.3806 25.2777 24.2991 25.3491 24.2019C25.4205 24.1046 25.471 23.9936 25.4974 23.8759C25.5239 23.7582 25.5257 23.6362 25.5028 23.5178C25.4798 23.3993 25.4326 23.2869 25.3641 23.1875ZM7.87508 10.5C7.87508 9.28861 8.2343 8.10441 8.90733 7.09716C9.58035 6.08991 10.5369 5.30485 11.6561 4.84126C12.7753 4.37768 14.0069 4.25638 15.195 4.49272C16.3831 4.72905 17.4745 5.3124 18.3311 6.169C19.1877 7.02559 19.7711 8.11696 20.0074 9.3051C20.2437 10.4932 20.1224 11.7248 19.6588 12.844C19.1953 13.9632 18.4102 14.9198 17.4029 15.5928C16.3957 16.2658 15.2115 16.625 14.0001 16.625C12.3756 16.625 10.8177 15.9797 9.66905 14.8311C8.52039 13.6824 7.87508 12.1245 7.87508 10.5Z" fill="#EAEAEA"/>
</svg>
