<svg width="24" height="24" viewBox="0 0 24 24" fill="none" xmlns="http://www.w3.org/2000/svg">
<path d="M7.72 16.456L9.481 15.948L20.084 5.21803C20.1676 5.13233 20.2142 5.01716 20.2136 4.89741C20.2131 4.77767 20.1654 4.66295 20.081 4.57803L19.446 3.93603C19.405 3.89387 19.3559 3.8603 19.3018 3.83729C19.2477 3.81427 19.1895 3.80228 19.1306 3.802C19.0718 3.80172 19.0135 3.81316 18.9591 3.83566C18.9048 3.85816 18.8554 3.89126 18.814 3.93303L8.239 14.635L7.719 16.455L7.72 16.456ZM20.703 2.66403L21.338 3.30703C22.214 4.19403 22.222 5.62503 21.354 6.50303L10.428 17.561L6.664 18.645C6.4342 18.7094 6.18826 18.6799 5.98016 18.5631C5.77206 18.4463 5.6188 18.2517 5.554 18.022C5.50578 17.8569 5.50509 17.6815 5.552 17.516L6.647 13.676L17.544 2.64703C17.7512 2.43839 17.9979 2.27309 18.2696 2.16078C18.5414 2.04847 18.8328 1.9914 19.1269 1.99289C19.4209 1.99438 19.7117 2.0544 19.9823 2.16946C20.2529 2.28451 20.4979 2.4523 20.703 2.66303V2.66403ZM9.184 3.81703C9.68 3.81703 10.082 4.22403 10.082 4.72603C10.0828 4.8447 10.0602 4.96236 10.0155 5.07228C9.97076 5.18221 9.90481 5.28224 9.82141 5.36666C9.73801 5.45108 9.63879 5.51824 9.52942 5.56429C9.42004 5.61034 9.30267 5.63438 9.184 5.63503H5.592C4.6 5.63503 3.796 6.44903 3.796 7.45203V18.358C3.796 19.362 4.6 20.176 5.592 20.176H16.368C17.36 20.176 18.165 19.362 18.165 18.358V14.723C18.165 14.221 18.567 13.814 19.063 13.814C19.559 13.814 19.961 14.221 19.961 14.724V18.358C19.961 20.366 18.352 21.994 16.368 21.994H5.592C3.608 21.994 2 20.366 2 18.358V7.45203C2 5.44503 3.608 3.81703 5.592 3.81703H9.184Z" fill="#ff5762"/>
</svg>
