<?xml version="1.0" encoding="UTF-8"?>
<svg xmlns="http://www.w3.org/2000/svg" xmlns:xlink="http://www.w3.org/1999/xlink" width="20px" height="20px"
     viewBox="0 0 20 20" version="1.1">
    <g id="surface1">
        <path fill="#FFFFFF" style=" stroke:none;fill-rule:evenodd;fill-opacity:1;"
              d="M 10.183594 13.960938 C 8.726562 13.960938 7.449219 13.167969 6.769531 11.988281 L 4.449219 13.328125 C 4.3125 13.40625 4.269531 13.582031 4.355469 13.710938 C 5.578125 15.636719 7.730469 16.917969 10.183594 16.917969 C 12.738281 16.917969 14.96875 15.53125 16.160156 13.46875 L 13.828125 12.121094 C 13.703125 12.046875 13.542969 12.085938 13.464844 12.207031 C 12.757812 13.261719 11.550781 13.960938 10.183594 13.960938 Z M 18.480469 5.226562 C 18.617188 5.148438 18.660156 4.976562 18.578125 4.84375 C 16.84375 2.03125 13.730469 0.15625 10.183594 0.15625 C 6.535156 0.15625 3.351562 2.140625 1.644531 5.085938 L 3.972656 6.429688 C 4.101562 6.503906 4.265625 6.464844 4.34375 6.339844 C 5.566406 4.402344 7.722656 3.117188 10.183594 3.117188 C 12.738281 3.117188 14.96875 4.503906 16.160156 6.566406 Z M 18.480469 5.226562 "/>
        <path fill="#FFFFFF" style=" stroke:none;fill-rule:evenodd;fill-opacity:1;"
              d="M 10.183594 16.917969 C 7.730469 16.917969 5.578125 15.636719 4.355469 13.710938 C 4.273438 13.582031 4.3125 13.40625 4.449219 13.328125 L 6.769531 11.988281 C 6.433594 11.410156 6.242188 10.734375 6.242188 10.015625 C 6.242188 7.847656 7.996094 6.074219 10.183594 6.074219 C 11.550781 6.074219 12.757812 6.769531 13.464844 7.828125 C 13.542969 7.945312 13.703125 7.984375 13.828125 7.914062 L 16.160156 6.566406 C 14.96875 4.503906 12.738281 3.117188 10.183594 3.117188 C 7.722656 3.117188 5.566406 4.402344 4.34375 6.339844 C 4.265625 6.464844 4.101562 6.503906 3.972656 6.429688 L 1.644531 5.085938 C 0.804688 6.535156 0.324219 8.21875 0.324219 10.015625 C 0.324219 15.433594 4.714844 19.875 10.183594 19.875 C 13.730469 19.875 16.84375 18 18.578125 15.1875 C 18.660156 15.058594 18.617188 14.882812 18.480469 14.808594 L 16.160156 13.46875 C 14.96875 15.53125 12.738281 16.917969 10.183594 16.917969 Z M 10.183594 16.917969 "/>
        <path fill="#FFFFFF" style=" stroke:none;fill-rule:evenodd;fill-opacity:1;"
              d="M 18.496094 11.078125 L 18.496094 8.957031 L 16.660156 10.015625 Z M 15.289062 9.542969 L 18.769531 7.53125 C 19.132812 7.324219 19.589844 7.585938 19.589844 8.007812 L 19.589844 12.023438 C 19.589844 12.445312 19.132812 12.710938 18.769531 12.5 L 15.289062 10.492188 C 14.925781 10.28125 14.925781 9.753906 15.289062 9.542969 Z M 15.289062 9.542969 "/>
    </g>
</svg>
