<?xml version="1.0" encoding="UTF-8"?>
<svg xmlns="http://www.w3.org/2000/svg" xmlns:xlink="http://www.w3.org/1999/xlink" width="20px" height="20px"
     viewBox="2 2 15 15" version="1.1">
    <defs>
        <clipPath id="clip1">
            <path d="M 2 3 L 17 3 L 17 16 L 2 16 Z M 2 3 "/>
        </clipPath>
        <clipPath id="clip2">
            <path d="M 14.171875 12.238281 C 13.824219 12.238281 13.683594 12.039062 13.683594 12.039062 C 13.660156 11.949219 13.636719 10.628906 13.625 9.316406 C 13.613281 7.953125 13.625 6.597656 13.695312 6.585938 C 14.101562 5.863281 15.378906 4.410156 15.378906 4.410156 C 12.988281 4.863281 11.6875 6.363281 11.6875 6.363281 C 11.304688 6.074219 10.515625 6.117188 10.515625 6.117188 C 10.886719 6.308594 11.246094 6.875 11.246094 7.339844 L 11.246094 11.9375 C 11.246094 11.9375 10.445312 12.617188 9.832031 12.617188 C 9.460938 12.617188 9.242188 12.425781 9.113281 12.269531 C 9.03125 12.160156 8.996094 12.070312 8.996094 12.070312 L 8.996094 6.398438 C 8.914062 6.453125 8.8125 6.496094 8.707031 6.496094 C 8.578125 6.496094 8.441406 6.429688 8.347656 6.253906 C 8.277344 6.109375 8.230469 5.90625 8.230469 5.597656 C 8.230469 4.554688 9.472656 3.851562 9.472656 3.851562 C 7.90625 4.253906 6.445312 5.03125 4.507812 7.164062 C 2.570312 9.296875 2.941406 11.050781 2.941406 11.050781 C 2.941406 11.050781 3.464844 9.828125 4.75 8.550781 C 5.367188 7.953125 5.816406 7.75 6.132812 7.742188 C 6.480469 7.742188 6.640625 7.984375 6.640625 8.207031 L 6.640625 12.527344 C 6.640625 12.949219 6.351562 13.046875 6.085938 13.039062 C 5.863281 13.039062 5.65625 12.960938 5.65625 12.960938 C 6.976562 14.792969 10.132812 15.058594 10.132812 15.058594 L 11.527344 13.636719 L 11.5625 13.660156 L 12.835938 14.691406 C 15.15625 13.371094 16.28125 10.917969 16.28125 10.917969 C 15.226562 11.992188 14.566406 12.238281 14.171875 12.238281 "/>
        </clipPath>
        <clipPath id="clip3">
            <path d="M 9.949219 0.578125 C 12.40625 0.578125 14.726562 1.5 16.46875 3.1875 C 18.207031 4.863281 19.171875 7.105469 19.171875 9.484375 C 19.171875 11.859375 18.207031 14.09375 16.46875 15.78125 C 14.726562 17.457031 12.40625 18.390625 9.949219 18.390625 C 7.488281 18.390625 5.167969 17.46875 3.429688 15.78125 C 1.6875 14.105469 0.726562 11.859375 0.726562 9.484375 C 0.726562 7.105469 1.6875 4.875 3.429688 3.1875 C 5.167969 1.5 7.476562 0.578125 9.949219 0.578125 M 9.949219 0.167969 C 4.613281 0.167969 0.296875 4.332031 0.296875 9.472656 C 0.296875 14.613281 4.613281 18.777344 9.9375 18.777344 C 15.261719 18.777344 19.578125 14.613281 19.578125 9.472656 C 19.589844 4.332031 15.273438 0.167969 9.949219 0.167969 "/>
        </clipPath>
    </defs>
    <g id="surface1">
        <g clip-path="url(#clip1)" clip-rule="nonzero">
            <g clip-path="url(#clip2)" clip-rule="nonzero">
                <path fill="#FFFFFF" style=" stroke:none;fill-rule:nonzero;fill-opacity:1;"
                      d="M 2.765625 3.71875 L 16.410156 3.71875 L 16.410156 15.203125 L 2.765625 15.203125 Z M 2.765625 3.71875 "/>
            </g>
        </g>
    </g>
</svg>
