<?xml version="1.0" encoding="UTF-8"?>
<svg xmlns="http://www.w3.org/2000/svg" xmlns:xlink="http://www.w3.org/1999/xlink" width="20px" height="20px"
     viewBox="0 0 20 20" version="1.1">
    <g id="surface1">
        <path style=" stroke:none;fill-rule:nonzero;fill-opacity:1;"
              d="M 17.953125 13.148438 C 17.953125 13.148438 17.925781 12.984375 17.910156 12.988281 L 14.96875 13.269531 C 14.738281 13.292969 14.554688 13.480469 14.539062 13.714844 L 14.457031 14.871094 L 12.179688 15.035156 L 12.027344 13.984375 C 11.992188 13.75 11.789062 13.574219 11.550781 13.574219 L 8.449219 13.574219 C 8.210938 13.574219 8.007812 13.75 7.972656 13.984375 L 7.820312 15.035156 L 5.542969 14.871094 L 5.460938 13.714844 C 5.445312 13.480469 5.261719 13.292969 5.03125 13.269531 L 2.085938 12.988281 C 2.070312 12.984375 2.058594 13.148438 2.046875 13.148438 L 2.039062 13.785156 L 4.535156 14.1875 L 4.613281 15.355469 C 4.632812 15.589844 4.824219 15.78125 5.058594 15.800781 L 8.195312 16.023438 C 8.207031 16.023438 8.21875 16.023438 8.230469 16.023438 C 8.464844 16.023438 8.667969 15.847656 8.703125 15.613281 L 8.863281 14.535156 L 11.136719 14.535156 L 11.296875 15.613281 C 11.332031 15.847656 11.535156 16.023438 11.773438 16.023438 C 11.785156 16.023438 11.792969 16.023438 11.804688 16.023438 L 14.941406 15.800781 C 15.175781 15.78125 15.367188 15.589844 15.386719 15.355469 L 15.464844 14.1875 L 17.957031 13.78125 Z M 17.953125 13.148438 "/>
        <path style=" stroke:none;fill-rule:nonzero;fill-opacity:1;"
              d="M 2.042969 8.347656 L 2.042969 13.148438 C 2.054688 13.148438 2.0625 13.148438 2.070312 13.148438 L 5.015625 13.433594 C 5.167969 13.449219 5.289062 13.570312 5.300781 13.726562 L 5.390625 15.023438 L 7.957031 15.207031 L 8.132812 14.007812 C 8.15625 13.855469 8.289062 13.738281 8.449219 13.738281 L 11.550781 13.738281 C 11.710938 13.738281 11.84375 13.855469 11.867188 14.007812 L 12.042969 15.207031 L 14.609375 15.023438 L 14.699219 13.726562 C 14.710938 13.570312 14.832031 13.449219 14.984375 13.433594 L 17.925781 13.148438 C 17.9375 13.148438 17.945312 13.148438 17.953125 13.148438 L 17.953125 12.765625 L 17.957031 12.765625 L 17.957031 8.347656 L 17.964844 8.347656 C 18.355469 7.851562 18.714844 7.324219 19.0625 6.765625 C 18.601562 5.984375 18.039062 5.285156 17.4375 4.636719 C 16.878906 4.917969 16.339844 5.238281 15.828125 5.574219 C 15.570312 5.320312 15.28125 5.113281 15 4.894531 C 14.71875 4.671875 14.40625 4.507812 14.109375 4.316406 C 14.195312 3.65625 14.242188 3.007812 14.257812 2.328125 C 13.492188 1.941406 12.671875 1.683594 11.84375 1.5 C 11.511719 2.058594 11.210938 2.660156 10.945312 3.246094 C 10.632812 3.195312 10.320312 3.175781 10.007812 3.171875 C 10.003906 3.171875 10 3.171875 10 3.171875 C 10 3.171875 9.996094 3.171875 9.992188 3.171875 C 9.679688 3.175781 9.367188 3.195312 9.054688 3.246094 C 8.789062 2.660156 8.488281 2.058594 8.15625 1.5 C 7.328125 1.683594 6.507812 1.941406 5.742188 2.328125 C 5.757812 3.007812 5.804688 3.65625 5.890625 4.316406 C 5.59375 4.507812 5.28125 4.671875 5 4.894531 C 4.71875 5.113281 4.429688 5.320312 4.171875 5.574219 C 3.660156 5.238281 3.121094 4.917969 2.5625 4.636719 C 1.960938 5.285156 1.398438 5.984375 0.9375 6.765625 C 1.285156 7.324219 1.644531 7.851562 2.035156 8.347656 Z M 2.042969 8.347656 "/>
        <path style=" stroke:none;fill-rule:nonzero;fill-opacity:1;"
              d="M 15.3125 14.039062 L 15.222656 15.34375 C 15.210938 15.5 15.085938 15.625 14.929688 15.636719 L 11.792969 15.859375 C 11.785156 15.863281 11.78125 15.863281 11.773438 15.863281 C 11.617188 15.863281 11.480469 15.746094 11.457031 15.589844 L 11.277344 14.371094 L 8.722656 14.371094 L 8.542969 15.589844 C 8.515625 15.753906 8.371094 15.875 8.207031 15.859375 L 5.070312 15.636719 C 4.914062 15.625 4.789062 15.5 4.777344 15.34375 L 4.6875 14.039062 L 2.039062 13.78125 C 2.042969 14.066406 2.046875 14.378906 2.046875 14.441406 C 2.046875 17.234375 5.589844 18.578125 9.996094 18.59375 L 10.003906 18.59375 C 14.410156 18.578125 17.953125 17.234375 17.953125 14.441406 C 17.953125 14.378906 17.957031 14.066406 17.960938 13.78125 Z M 15.3125 14.039062 "/>
        <path style=" stroke:none;fill-rule:nonzero;fill-opacity:1;"
              d="M 7.601562 10.296875 C 7.601562 11.277344 6.808594 12.070312 5.828125 12.070312 C 4.847656 12.070312 4.054688 11.277344 4.054688 10.296875 C 4.054688 9.316406 4.847656 8.523438 5.828125 8.523438 C 6.808594 8.523438 7.601562 9.316406 7.601562 10.296875 "/>
        <path style=" stroke:none;fill-rule:nonzero;fill-opacity:1;"
              d="M 7.175781 10.402344 C 7.175781 11.050781 6.648438 11.578125 5.996094 11.578125 C 5.347656 11.578125 4.820312 11.050781 4.820312 10.402344 C 4.820312 9.75 5.347656 9.222656 5.996094 9.222656 C 6.648438 9.222656 7.175781 9.75 7.175781 10.402344 "/>
        <path style=" stroke:none;fill-rule:nonzero;fill-opacity:1;"
              d="M 10 12.230469 C 9.683594 12.230469 9.429688 12 9.429688 11.710938 L 9.429688 10.078125 C 9.429688 9.792969 9.683594 9.5625 10 9.5625 C 10.316406 9.5625 10.570312 9.792969 10.570312 10.078125 L 10.570312 11.710938 C 10.570312 12 10.316406 12.230469 10 12.230469 "/>
        <path style=" stroke:none;fill-rule:nonzero;fill-opacity:1;"
              d="M 12.398438 10.296875 C 12.398438 11.277344 13.191406 12.070312 14.171875 12.070312 C 15.152344 12.070312 15.945312 11.277344 15.945312 10.296875 C 15.945312 9.316406 15.152344 8.523438 14.171875 8.523438 C 13.191406 8.523438 12.398438 9.316406 12.398438 10.296875 "/>
        <path style=" stroke:none;fill-rule:nonzero;fill-opacity:1;"
              d="M 12.824219 10.402344 C 12.824219 11.050781 13.351562 11.578125 14 11.578125 C 14.652344 11.578125 15.179688 11.050781 15.179688 10.402344 C 15.179688 9.75 14.652344 9.222656 14 9.222656 C 13.351562 9.222656 12.824219 9.75 12.824219 10.402344 "/>
    </g>
</svg>
