<?xml version="1.0" encoding="UTF-8"?>
<svg xmlns="http://www.w3.org/2000/svg" xmlns:xlink="http://www.w3.org/1999/xlink" width="20px" height="20px"
     viewBox="0 0 20 20" version="1.1">
    <g id="surface1">
        <path fill="#FFFFFF" style=" stroke:none;fill-rule:nonzero;fill-opacity:1;"
              d="M 7.980469 0 L 7.980469 3.980469 L 3.988281 3.988281 L 3.980469 7.980469 L 0 7.980469 L 0 12.019531 L 3.980469 12.019531 L 3.980469 16.019531 L 7.980469 16.019531 L 7.980469 20 L 12.019531 20 L 12.019531 16.019531 L 16.019531 16.019531 L 16.019531 12.019531 L 20 12.019531 L 20 7.980469 L 16.019531 7.980469 L 16.019531 3.980469 L 12.019531 3.980469 L 12.019531 0 Z M 8.019531 4.019531 L 11.980469 4.019531 L 11.980469 8.019531 L 15.980469 8.019531 L 15.980469 11.980469 L 11.988281 11.988281 L 11.980469 15.980469 L 8.019531 15.980469 L 8.019531 11.980469 L 4.019531 11.980469 L 4.019531 8.019531 L 8.019531 8.019531 Z M 8.019531 4.019531 "/>
    </g>
</svg>
