<?xml version="1.0" encoding="UTF-8"?>
<svg xmlns="http://www.w3.org/2000/svg" xmlns:xlink="http://www.w3.org/1999/xlink" width="20px" height="20px"
     viewBox="0 0 20 20" version="1.1">
    <g id="surface1">
        <path style=" stroke:none;fill-rule:nonzero;fill-opacity:1;"
              d="M 11 18.75 C 11 19.4375 10.441406 20 9.75 20 C 9.058594 20 8.5 19.4375 8.5 18.75 C 8.5 18.058594 9.058594 17.5 9.75 17.5 C 10.441406 17.5 11 18.058594 11 18.75 Z M 11 18.75 "/>
        <path style=" stroke:none;fill-rule:nonzero;fill-opacity:1;"
              d="M 9.796875 16.234375 C 8.960938 16.234375 8.179688 15.910156 7.589844 15.316406 C 6.996094 14.625 6.671875 13.84375 6.671875 13.007812 C 6.671875 12.171875 6.996094 11.390625 7.589844 10.902344 L 11.769531 6.722656 C 12.238281 6.246094 12.5 5.621094 12.5 4.953125 C 12.5 4.285156 12.238281 3.65625 11.765625 3.1875 C 10.792969 2.210938 9.207031 2.210938 8.234375 3.1875 C 7.761719 3.65625 7.5 4.285156 7.5 4.953125 L 5 4.953125 C 5 3.617188 5.519531 2.359375 6.46875 1.417969 C 8.355469 -0.472656 11.644531 -0.472656 13.535156 1.417969 C 14.480469 2.359375 15 3.617188 15 4.953125 C 15 6.289062 14.480469 7.542969 13.535156 8.488281 L 9.355469 12.566406 C 9.113281 12.808594 9.113281 13.203125 9.355469 13.449219 C 9.597656 13.695312 9.996094 13.695312 10.238281 13.449219 C 10.398438 13.289062 10.421875 13.101562 10.421875 13.003906 L 12.921875 13.003906 C 12.921875 13.839844 12.597656 14.625 12.007812 15.316406 C 11.417969 15.90625 10.632812 16.234375 9.796875 16.234375 Z M 9.796875 16.234375 "/>
    </g>
</svg>
