<svg xmlns="http://www.w3.org/2000/svg" width="65" height="65" viewBox="0 0 65 65" fill="none">
    <path d="M58.5888 18.002C57.738 16.0319 56.5111 14.2466 54.977 12.7461C53.4417 11.2411 51.6316 10.0451 49.645 9.22314C47.585 8.36744 45.3756 7.92944 43.145 7.93457C40.0156 7.93457 36.9624 8.7915 34.3091 10.4102C33.6743 10.7974 33.0713 11.2227 32.5 11.686C31.9287 11.2227 31.3257 10.7974 30.6909 10.4102C28.0376 8.7915 24.9844 7.93457 21.855 7.93457C19.6015 7.93457 17.418 8.36621 15.355 9.22314C13.3618 10.0483 11.5654 11.2354 10.0229 12.7461C8.48679 14.2449 7.25967 16.0306 6.41113 18.002C5.52881 20.0522 5.07812 22.2295 5.07812 24.4702C5.07812 26.584 5.50977 28.7866 6.3667 31.0273C7.08398 32.8999 8.1123 34.8423 9.42627 36.8037C11.5083 39.9077 14.3711 43.145 17.9258 46.4268C23.8164 51.8667 29.6499 55.6245 29.8974 55.7769L31.4018 56.7417C32.0683 57.167 32.9253 57.167 33.5918 56.7417L35.0962 55.7769C35.3437 55.6182 41.1709 51.8667 47.0678 46.4268C50.6225 43.145 53.4853 39.9077 55.5673 36.8037C56.8813 34.8423 57.916 32.8999 58.6269 31.0273C59.4838 28.7866 59.9155 26.584 59.9155 24.4702C59.9218 22.2295 59.4711 20.0522 58.5888 18.002V18.002ZM32.5 51.7207C32.5 51.7207 9.90234 37.2417 9.90234 24.4702C9.90234 18.002 15.2534 12.7588 21.855 12.7588C26.4951 12.7588 30.5195 15.3486 32.5 19.1318C34.4804 15.3486 38.5049 12.7588 43.145 12.7588C49.7465 12.7588 55.0976 18.002 55.0976 24.4702C55.0976 37.2417 32.5 51.7207 32.5 51.7207Z" fill="white"/>
</svg>