<?xml version="1.0" encoding="utf-8"?>
<svg viewBox="0 0 512 512"  xmlns="http://www.w3.org/2000/svg">
  <g class="" transform="matrix(1.152245, 0, 0, 1.152245, -38.204872, -82.080536)" style="">
    <path fill="currentColor" d="M 257.125 94.906 C 207.597 94.859 146.651 124.138 128.719 199.844 L 189.469 214.156 C 216.434 137.914 280.339 143.332 302.779 185.531 C 329.554 235.877 213.092 292.814 218.655 375.938 L 296.343 375.938 C 302.833 277.794 415.316 252.448 355.905 146.408 C 337.963 114.38 301 96.572 261.876 95.03 L 261.876 95 C 260.303 94.938 258.723 94.908 257.126 94.906 L 257.125 94.906 Z M 258.5 395.97 C 231.55 395.97 209.906 417.614 209.906 444.562 C 209.906 471.512 231.551 493.156 258.5 493.156 C 285.45 493.156 307.094 471.511 307.094 444.562 C 307.094 417.614 285.449 395.969 258.5 395.969 L 258.5 395.97 Z"  fill-opacity="1"/>
  </g>
</svg>