<svg width="20" height="20" viewBox="0 0 20 20" fill="none" xmlns="http://www.w3.org/2000/svg">
<path fill-rule="evenodd" clip-rule="evenodd" d="M3.10002 0.400024C2.38394 0.400024 1.69718 0.684488 1.19084 1.19084C0.684488 1.69718 0.400024 2.38394 0.400024 3.10002V16.9C0.400024 17.6161 0.684488 18.3029 1.19084 18.8092C1.69718 19.3156 2.38394 19.6 3.10002 19.6H16.9C17.6161 19.6 18.3029 19.3156 18.8092 18.8092C19.3156 18.3029 19.6 17.6161 19.6 16.9V3.10002C19.6 2.38394 19.3156 1.69718 18.8092 1.19084C18.3029 0.684488 17.6161 0.400024 16.9 0.400024H3.10002ZM7.93602 7.93602C8.095 7.76541 8.18155 7.53976 8.17744 7.3066C8.17332 7.07344 8.07887 6.85097 7.91397 6.68608C7.74907 6.52118 7.52661 6.42673 7.29345 6.42261C7.06029 6.4185 6.83463 6.50505 6.66402 6.66402L3.96402 9.36403C3.79548 9.53278 3.70082 9.76152 3.70082 10C3.70082 10.2385 3.79548 10.4673 3.96402 10.636L6.66402 13.336C6.83463 13.495 7.06029 13.5815 7.29345 13.5774C7.52661 13.5733 7.74907 13.4789 7.91397 13.314C8.07887 13.1491 8.17332 12.9266 8.17744 12.6935C8.18155 12.4603 8.095 12.2346 7.93602 12.064L5.87202 10L7.93602 7.93602ZM13.336 6.66402C13.2536 6.5756 13.1543 6.50468 13.0439 6.45549C12.9335 6.4063 12.8143 6.37985 12.6935 6.37772C12.5726 6.37558 12.4526 6.39781 12.3405 6.44308C12.2284 6.48834 12.1266 6.55572 12.0412 6.64118C11.9557 6.72664 11.8883 6.82844 11.8431 6.94051C11.7978 7.05257 11.7756 7.17261 11.7777 7.29345C11.7798 7.4143 11.8063 7.53347 11.8555 7.64387C11.9047 7.75427 11.9756 7.85363 12.064 7.93602L14.128 10L12.064 12.064C11.9756 12.1464 11.9047 12.2458 11.8555 12.3562C11.8063 12.4666 11.7798 12.5858 11.7777 12.7066C11.7756 12.8274 11.7978 12.9475 11.8431 13.0595C11.8883 13.1716 11.9557 13.2734 12.0412 13.3589C12.1266 13.4443 12.2284 13.5117 12.3405 13.557C12.4526 13.6022 12.5726 13.6245 12.6935 13.6223C12.8143 13.6202 12.9335 13.5938 13.0439 13.5446C13.1543 13.4954 13.2536 13.4244 13.336 13.336L16.036 10.636C16.2046 10.4673 16.2992 10.2385 16.2992 10C16.2992 9.76152 16.2046 9.53278 16.036 9.36403L13.336 6.66402Z" fill="#FAFAFA"/>
</svg>
