<svg width="24" height="24" viewBox="0 0 24 24" fill="none" xmlns="http://www.w3.org/2000/svg">
<path d="M8.05058 3.00598C7.9895 2.82893 7.87471 2.67534 7.7222 2.56662C7.56969 2.45791 7.38707 2.39948 7.19977 2.39948C7.01248 2.39948 6.82986 2.45791 6.67735 2.56662C6.52484 2.67534 6.41005 2.82893 6.34897 3.00598L3.64897 10.806C3.571 11.0316 3.58586 11.279 3.69028 11.4937C3.7947 11.7084 3.98013 11.8728 4.20577 11.9508C4.43142 12.0288 4.6788 12.0139 4.89349 11.9095C5.10818 11.8051 5.2726 11.6196 5.35058 11.394L5.76338 10.2H8.63618L9.04897 11.394C9.12695 11.6196 9.29137 11.8051 9.50606 11.9095C9.72075 12.0139 9.96813 12.0288 10.1938 11.9508C10.4194 11.8728 10.6049 11.7084 10.7093 11.4937C10.8137 11.279 10.8285 11.0316 10.7506 10.806L8.05058 3.00598ZM7.19977 6.05158L8.01337 8.39998H6.38737L7.19977 6.05158ZM4.79977 13.2C4.56108 13.2 4.33216 13.2948 4.16338 13.4636C3.9946 13.6324 3.89977 13.8613 3.89977 14.1C3.89977 14.3387 3.9946 14.5676 4.16338 14.7364C4.33216 14.9052 4.56108 15 4.79977 15H7.83217L4.07257 20.1708C3.97501 20.305 3.91644 20.4636 3.90335 20.629C3.89027 20.7944 3.92316 20.9602 3.99841 21.1081C4.07366 21.256 4.18833 21.3802 4.32975 21.467C4.47118 21.5538 4.63384 21.5998 4.79977 21.6H9.59977C9.83847 21.6 10.0674 21.5052 10.2362 21.3364C10.405 21.1676 10.4998 20.9387 10.4998 20.7C10.4998 20.4613 10.405 20.2324 10.2362 20.0636C10.0674 19.8948 9.83847 19.8 9.59977 19.8H6.56737L10.3282 14.6292C10.4258 14.4949 10.4844 14.3362 10.4974 14.1707C10.5105 14.0051 10.4775 13.8392 10.4021 13.6913C10.3267 13.5434 10.2118 13.4192 10.0702 13.3325C9.92863 13.2458 9.76581 13.1999 9.59977 13.2H4.79977ZM17.0998 2.39998C17.3385 2.39998 17.5674 2.4948 17.7362 2.66358C17.905 2.83237 17.9998 3.06129 17.9998 3.29998V18.3864L19.7362 16.4916C19.8975 16.3156 20.1222 16.2109 20.3607 16.2005C20.5993 16.1902 20.8322 16.275 21.0082 16.4364C21.1842 16.5977 21.2889 16.8224 21.2992 17.0609C21.3096 17.2995 21.2247 17.5324 21.0634 17.7084L17.7634 21.3084C17.6791 21.4004 17.5765 21.4739 17.4623 21.5242C17.348 21.5744 17.2246 21.6004 17.0998 21.6004C16.975 21.6004 16.8515 21.5744 16.7373 21.5242C16.623 21.4739 16.5205 21.4004 16.4362 21.3084L13.1362 17.7084C12.9748 17.5324 12.89 17.2995 12.9003 17.0609C12.9107 16.8224 13.0154 16.5977 13.1914 16.4364C13.3674 16.275 13.6003 16.1902 13.8388 16.2005C14.0774 16.2109 14.302 16.3156 14.4634 16.4916L16.1998 18.3864V3.29998C16.1998 3.06129 16.2946 2.83237 16.4634 2.66358C16.6322 2.4948 16.8611 2.39998 17.0998 2.39998Z" fill="#8AE7FF"/>
</svg>
