<svg width="20" height="19" viewBox="0 0 20 19" fill="none" xmlns="http://www.w3.org/2000/svg">
<path d="M5 12C3.34 12 2 13.34 2 15C2 16.31 0.84 17 0 17C0.92 18.22 2.49 19 4 19C6.21 19 8 17.21 8 15C8 13.34 6.66 12 5 12ZM18.71 2.63L17.37 1.29C17.2775 1.1973 17.1676 1.12375 17.0466 1.07357C16.9257 1.02339 16.796 0.997559 16.665 0.997559C16.534 0.997559 16.4043 1.02339 16.2834 1.07357C16.1624 1.12375 16.0525 1.1973 15.96 1.29L7 10.25L9.75 13L18.71 4.04C18.8027 3.94749 18.8762 3.8376 18.9264 3.71663C18.9766 3.59565 19.0024 3.46597 19.0024 3.335C19.0024 3.20403 18.9766 3.07435 18.9264 2.95338C18.8762 2.83241 18.8027 2.72252 18.71 2.63Z" fill="unset"/>
</svg>
