<svg width="20" height="24" viewBox="0 0 20 24" fill="inherit" xmlns="http://www.w3.org/2000/svg">
<path d="M19.378 6.10198L10.378 0.851978C10.2633 0.785032 10.1328 0.749756 10 0.749756C9.86717 0.749756 9.73672 0.785032 9.622 0.851978L0.622 6.10198C0.508767 6.16805 0.414832 6.26266 0.34956 6.37635C0.284289 6.49005 0.249961 6.61888 0.25 6.74998V17.25C0.249961 17.3811 0.284289 17.5099 0.34956 17.6236C0.414832 17.7373 0.508767 17.8319 0.622 17.898L9.622 23.148C9.73672 23.2149 9.86717 23.2502 10 23.2502C10.1328 23.2502 10.2633 23.2149 10.378 23.148L19.378 17.898C19.4912 17.8319 19.5852 17.7373 19.6504 17.6236C19.7157 17.5099 19.75 17.3811 19.75 17.25V6.74998C19.75 6.61888 19.7157 6.49005 19.6504 6.37635C19.5852 6.26266 19.4912 6.16805 19.378 6.10198ZM10 2.36848L17.512 6.74998L10 11.1315L2.488 6.74998L10 2.36848ZM1.75 8.05498L9.25 12.4297V21.195L1.75 16.8195V8.05498ZM10.75 21.195V12.4305L18.25 8.05573V16.8195L10.75 21.195Z" fill="unset"/>
</svg>
