<svg width="21" height="20" viewBox="0 0 21 20" fill="inherit" xmlns="http://www.w3.org/2000/svg">
<path d="M19.9177 18.9638L16.9667 16.031V4.74814L15.573 2.18496C15.4702 1.98954 15.316 1.82592 15.1269 1.71178C14.9379 1.59763 14.7213 1.5373 14.5005 1.5373C14.2797 1.5373 14.063 1.59763 13.874 1.71178C13.685 1.82592 13.5307 1.98954 13.4279 2.18496L12.1191 4.7542V11.2076L1.03619 0.179251C0.951436 0.0937935 0.843151 0.0355125 0.725143 0.0118381C0.607135 -0.0118363 0.48475 0.000168525 0.373592 0.046322C0.262433 0.0924756 0.167537 0.170687 0.101003 0.270984C0.0344688 0.371281 -0.000689683 0.48912 1.02509e-05 0.609478V5.50558H1.31493V6.47511H1.02509e-05V10.3532H1.31493V11.3227H1.02509e-05V15.3523H1.31493V16.3219H1.02509e-05V19.394C1.02509e-05 19.5547 0.0638516 19.7089 0.17749 19.8225C0.291128 19.9361 0.445255 20 0.605964 20H19.4875C19.6078 20.0007 19.7257 19.9655 19.826 19.899C19.9263 19.8325 20.0045 19.7376 20.0506 19.6264C20.0968 19.5152 20.1088 19.3929 20.0851 19.2749C20.0614 19.1568 20.0032 19.0486 19.9177 18.9638ZM4.84764 15.2008V9.7109L10.3436 15.2008H4.84764ZM15.7548 16.4794H13.331V15.0069H15.7548V16.4794ZM15.7548 14.0556H13.331V5.05112L14.5065 2.76667L15.7548 5.05718V14.0556Z" fill="unset"/>
</svg>
