<svg width="21" height="23" viewBox="0 0 21 23" fill="none" xmlns="http://www.w3.org/2000/svg">
<path d="M10.625 2C5.86175 2 2 5.86175 2 10.625V12.5H5C5.19891 12.5 5.38968 12.579 5.53033 12.7197C5.67098 12.8603 5.75 13.0511 5.75 13.25V20.75C5.75 20.9489 5.67098 21.1397 5.53033 21.2803C5.38968 21.421 5.19891 21.5 5 21.5H3.875C2.97989 21.5 2.12145 21.1444 1.48851 20.5115C0.855579 19.8785 0.5 19.0201 0.5 18.125V10.625C0.5 5.033 5.033 0.5 10.625 0.5C16.217 0.5 20.75 5.033 20.75 10.625V18.125C20.75 19.0201 20.3944 19.8785 19.7615 20.5115C19.1285 21.1444 18.2701 21.5 17.375 21.5H16.25C16.0511 21.5 15.8603 21.421 15.7197 21.2803C15.579 21.1397 15.5 20.9489 15.5 20.75V13.25C15.5 13.0511 15.579 12.8603 15.7197 12.7197C15.8603 12.579 16.0511 12.5 16.25 12.5H19.25V10.625C19.25 5.86175 15.3883 2 10.625 2ZM11.375 11.75C11.375 11.5511 11.296 11.3603 11.1553 11.2197C11.0147 11.079 10.8239 11 10.625 11C10.4261 11 10.2353 11.079 10.0947 11.2197C9.95402 11.3603 9.875 11.5511 9.875 11.75V21.5C9.875 21.6989 9.95402 21.8897 10.0947 22.0303C10.2353 22.171 10.4261 22.25 10.625 22.25C10.8239 22.25 11.0147 22.171 11.1553 22.0303C11.296 21.8897 11.375 21.6989 11.375 21.5V11.75ZM8 14C8.19891 14 8.38968 14.079 8.53033 14.2197C8.67098 14.3603 8.75 14.5511 8.75 14.75V18.5C8.75 18.6989 8.67098 18.8897 8.53033 19.0303C8.38968 19.171 8.19891 19.25 8 19.25C7.80109 19.25 7.61032 19.171 7.46967 19.0303C7.32902 18.8897 7.25 18.6989 7.25 18.5V14.75C7.25 14.5511 7.32902 14.3603 7.46967 14.2197C7.61032 14.079 7.80109 14 8 14ZM14 14.75C14 14.5511 13.921 14.3603 13.7803 14.2197C13.6397 14.079 13.4489 14 13.25 14C13.0511 14 12.8603 14.079 12.7197 14.2197C12.579 14.3603 12.5 14.5511 12.5 14.75V18.5C12.5 18.6989 12.579 18.8897 12.7197 19.0303C12.8603 19.171 13.0511 19.25 13.25 19.25C13.4489 19.25 13.6397 19.171 13.7803 19.0303C13.921 18.8897 14 18.6989 14 18.5V14.75Z" fill="unset"/>
</svg>
