<svg width="20" height="20" viewBox="0 0 20 20" fill="inherit" xmlns="http://www.w3.org/2000/svg">
<path d="M19.78 4.78001C19.8848 4.67512 19.9561 4.54154 19.985 4.39614C20.0138 4.25075 19.999 4.10005 19.9423 3.96309C19.8856 3.82612 19.7895 3.70904 19.6663 3.62662C19.5431 3.5442 19.3982 3.50014 19.25 3.50001H16.5V0.750008C16.4999 0.601768 16.4558 0.456892 16.3734 0.333676C16.291 0.21046 16.1739 0.114433 16.0369 0.0577215C15.9 0.00101013 15.7493 -0.0138412 15.6039 0.0150431C15.4585 0.0439275 15.3249 0.115252 15.22 0.220008L12.72 2.72001C12.5793 2.86053 12.5002 3.05116 12.5 3.25001V6.08601L10.518 8.06801C10.2217 7.98917 9.91122 7.97941 9.61053 8.03949C9.30985 8.09958 9.02697 8.22789 8.7837 8.41454C8.54043 8.6012 8.34326 8.84121 8.20739 9.11609C8.07151 9.39097 8.00056 9.69338 8 10C8.00013 10.2846 8.06101 10.566 8.17857 10.8252C8.29614 11.0844 8.46767 11.3155 8.68172 11.5031C8.89576 11.6907 9.14739 11.8305 9.41977 11.9131C9.69216 11.9957 9.97903 12.0191 10.2612 11.982C10.5434 11.9448 10.8144 11.8478 11.0561 11.6975C11.2978 11.5472 11.5047 11.347 11.6628 11.1104C11.821 10.8738 11.9268 10.6061 11.9732 10.3253C12.0196 10.0444 12.0056 9.75696 11.932 9.48201L13.914 7.50001H16.75C16.9488 7.49983 17.1395 7.4207 17.28 7.28001L19.78 4.78001ZM10 8.46802e-06C11.1677 -0.00151265 12.3266 0.201906 13.424 0.601009L12.012 2.01301C11.95 2.07501 11.892 2.14301 11.841 2.21301C10.147 1.81293 8.3687 1.97626 6.7759 2.67822C5.18311 3.38019 3.86271 4.58249 3.01502 6.10275C2.16732 7.623 1.83858 9.37825 2.07865 11.1022C2.31873 12.8262 3.11453 14.4249 4.34534 15.6557C5.57614 16.8865 7.17479 17.6823 8.89877 17.9224C10.6228 18.1624 12.378 17.8337 13.8983 16.986C15.4185 16.1383 16.6208 14.8179 17.3228 13.2251C18.0248 11.6323 18.1881 9.85402 17.788 8.16001C17.858 8.10801 17.925 8.05001 17.988 7.98801L19.398 6.57601C19.7974 7.67334 20.0012 8.83225 20 10C20 15.523 15.523 20 10 20C4.477 20 0 15.523 0 10C0 4.47701 4.477 8.46802e-06 10 8.46802e-06ZM10 4.00001C10.518 4.00001 11.02 4.06601 11.5 4.19001V5.67201L11.086 6.08601C11.0694 6.10239 11.053 6.11906 11.037 6.13601C10.4443 5.97794 9.82318 5.95814 9.22159 6.07813C8.62001 6.19812 8.05403 6.4547 7.56731 6.82807C7.0806 7.20144 6.68615 7.68163 6.41441 8.23159C6.14266 8.78154 6.00088 9.38658 6 10C6.0004 10.5692 6.12229 11.1318 6.35751 11.6501C6.59273 12.1685 6.93587 12.6306 7.364 13.0057C7.79213 13.3809 8.29539 13.6603 8.84014 13.8253C9.3849 13.9904 9.95861 14.0373 10.5229 13.9628C11.0873 13.8884 11.6292 13.6944 12.1126 13.3938C12.5959 13.0932 13.0095 12.6929 13.3258 12.2196C13.642 11.7463 13.8537 11.211 13.9465 10.6494C14.0393 10.0878 14.0112 9.51287 13.864 8.96301L13.914 8.91401L14.328 8.50001H15.811C16.1238 9.71154 16.05 10.9905 15.6 12.1581C15.1499 13.3256 14.3461 14.3232 13.3011 15.0113C12.256 15.6994 11.0219 16.0435 9.77161 15.9956C8.52127 15.9477 7.3172 15.51 6.32789 14.7439C5.33859 13.9778 4.61355 12.9215 4.25423 11.723C3.89492 10.5244 3.91931 9.24352 4.32399 8.05951C4.72866 6.87549 5.49338 5.84762 6.51114 5.11972C7.52889 4.39183 8.74874 4.00033 10 4.00001Z" fill="unset"/>
</svg>
