<?xml version="1.0" encoding="iso-8859-1"?>
<svg height="800px" width="800px" version="1.1" id="Capa_1" xmlns="http://www.w3.org/2000/svg" xmlns:xlink="http://www.w3.org/1999/xlink"
	 viewBox="0 0 58 58" xml:space="preserve">
<g>
	<g>
		<path d="M50,26c2.206,0,4-1.794,4-4s-1.794-4-4-4s-4,1.794-4,4S47.794,26,50,26z M50,20c1.103,0,2,0.897,2,2s-0.897,2-2,2
			s-2-0.897-2-2S48.897,20,50,20z"/>
		<path d="M55.918,27.364C57.207,25.943,58,24.065,58,22c0-4.411-3.589-8-8-8c-3.661,0-6.748,2.475-7.695,5.837l-4.197,11.193
			c-0.961,0.058-1.883,0.321-2.721,0.781l-20.47-8.389C14.387,19.75,11.231,17,7.5,17C3.364,17,0,20.364,0,24.5S3.364,32,7.5,32
			c1.494,0,2.912-0.452,4.144-1.274l20.592,8.44c0.006,0.034-0.002,0.067,0.008,0.101C33.029,42.054,35.602,44,38.5,44
			c3.584,0,6.5-2.916,6.5-6.5c0-0.175-0.013-0.348-0.026-0.52l10.68-9.223C55.78,27.647,55.861,27.51,55.918,27.364z M50,16
			c3.309,0,6,2.691,6,6s-2.691,6-6,6s-6-2.691-6-6c0-0.531,0.076-1.044,0.206-1.535l0.23-0.614c0.019-0.051,0.014-0.103,0.025-0.155
			C45.367,17.528,47.507,16,50,16z M6.241,26.351c-1.02-0.418-1.51-1.589-1.093-2.608c0.42-1.019,1.591-1.511,2.61-1.093
			l26.918,11.032c0.19,0.186,0.433,0.283,0.69,0.283l2.891,1.185c0.495,0.203,0.881,0.586,1.087,1.079s0.208,1.036,0.005,1.531
			c-0.417,1.021-1.584,1.512-2.608,1.092L6.241,26.351z M7.5,30C4.468,30,2,27.532,2,24.5S4.468,19,7.5,19
			c2.293,0,4.274,1.425,5.089,3.467l-4.073-1.669c-2.04-0.835-4.381,0.146-5.219,2.185c-0.835,2.04,0.145,4.381,2.185,5.218
			l3.725,1.527C8.662,29.906,8.089,30,7.5,30z M38.5,42c-1.394,0-2.668-0.66-3.505-1.703l0.988,0.405c0.489,0.2,1.003,0.3,1.517,0.3
			c0.523,0,1.047-0.104,1.545-0.313c0.985-0.412,1.751-1.184,2.155-2.172c0.837-2.041-0.143-4.382-2.184-5.22l-0.694-0.285
			C38.382,33.011,38.44,33,38.5,33c2.481,0,4.5,2.019,4.5,4.5S40.981,42,38.5,42z M40.171,31.226l2.377-6.338
			c1.161,2.985,4.058,5.111,7.449,5.112l-5.582,4.821C43.617,33.066,42.064,31.731,40.171,31.226z"/>
	</g>
</g>
</svg>
