<?xml version="1.0" encoding="utf-8"?>
<!-- Generator: Adobe Illustrator 19.0.0, SVG Export Plug-In . SVG Version: 6.00 Build 0)  -->
<svg version="1.1" xmlns="http://www.w3.org/2000/svg" xmlns:xlink="http://www.w3.org/1999/xlink" x="0px" y="0px"
	 viewBox="0 0 100 100" style="enable-background:new 0 0 100 100;" xml:space="preserve">
<style type="text/css">
	.st0{display:none;}
	.st1{display:inline;}
</style>
<g id="Layer_3">
	<circle fill="#FFF" id="XMLID_28_" cx="61.5" cy="36.5" r="13.8"/>
	<path fill="#FFF" id="XMLID_12_" d="M61.5,87.8c18.1,0,28.4-1.5,26.6-10.2c-1.8-8.7-5.5-19-11-21c-3.7-1.4-8.7-2.1-15.6-2.1s-11.9,0.7-15.6,2.1
		c-5.5,2.1-9.2,12.4-11,21S43.4,87.8,61.5,87.8z"/>
	<g fill="#FFF" id="XMLID_5_">
		<g id="XMLID_9_">
			<path id="XMLID_45_" d="M52,21.3c-0.7-7-6.6-12.5-13.8-12.5c-7.6,0-13.8,6.2-13.8,13.8c0,7.6,6.2,13.8,13.8,13.8
				c1.9,0,3.8-0.4,5.4-1.1C44.1,29.5,47.3,24.3,52,21.3z"/>
		</g>
	</g>
	<g fill="#FFF" id="XMLID_16_">
		<g id="XMLID_17_">
			<path id="XMLID_42_" d="M44.5,52.8c2-0.7,4.2-1.3,6.7-1.7c-3.4-2.4-6-6-7-10.2c-1.8-0.1-3.8-0.2-5.9-0.2
				c-6.9,0-11.9,0.7-15.6,2.1c-5.5,2.1-9.2,12.4-11,21c-1.6,7.6,6,9.7,19.9,10.1C33.5,66.2,37.3,55.5,44.5,52.8z"/>
		</g>
	</g>
</g>
</svg>
