<svg width="28" height="28" viewBox="0 0 28 28" fill="none" xmlns="http://www.w3.org/2000/svg">
<path opacity="0.2" d="M9.625 17.5C12.7661 17.5 15.3125 14.9536 15.3125 11.8125C15.3125 8.67138 12.7661 6.125 9.625 6.125C6.48388 6.125 3.9375 8.67138 3.9375 11.8125C3.9375 14.9536 6.48388 17.5 9.625 17.5Z" fill="#EAEAEA"/>
<path d="M13.2562 17.2703C14.4302 16.4904 15.3219 15.3534 15.7994 14.0273C16.2768 12.7013 16.3147 11.2567 15.9074 9.90746C15.5001 8.55821 14.6692 7.37593 13.5378 6.53559C12.4063 5.69526 11.0343 5.24152 9.62495 5.24152C8.21555 5.24152 6.8436 5.69526 5.71213 6.53559C4.58066 7.37593 3.74978 8.55821 3.34247 9.90746C2.93516 11.2567 2.97305 12.7013 3.45053 14.0273C3.92802 15.3534 4.81973 16.4904 5.9937 17.2703C3.99101 18.0068 2.26191 19.3389 1.03901 21.0875C0.959304 21.1799 0.89979 21.2879 0.864289 21.4046C0.828787 21.5213 0.818082 21.6441 0.832861 21.7652C0.84764 21.8863 0.887576 22.003 0.950106 22.1077C1.01264 22.2125 1.09638 22.303 1.19596 22.3734C1.29553 22.4439 1.40875 22.4928 1.52833 22.5169C1.64791 22.541 1.77121 22.5399 1.89032 22.5136C2.00944 22.4872 2.12173 22.4363 2.21999 22.364C2.31825 22.2917 2.4003 22.1996 2.46088 22.0938C3.26946 20.9451 4.3424 20.0076 5.58923 19.3605C6.83606 18.7134 8.2202 18.3757 9.62495 18.3757C11.0297 18.3757 12.4138 18.7134 13.6607 19.3605C14.9075 20.0076 15.9804 20.9451 16.789 22.0938C16.8496 22.1996 16.9316 22.2917 17.0299 22.364C17.1282 22.4363 17.2405 22.4872 17.3596 22.5136C17.4787 22.5399 17.602 22.541 17.7216 22.5169C17.8411 22.4928 17.9544 22.4439 18.0539 22.3734C18.1535 22.303 18.2373 22.2125 18.2998 22.1077C18.3623 22.003 18.4023 21.8863 18.417 21.7652C18.4318 21.6441 18.4211 21.5213 18.3856 21.4046C18.3501 21.2879 18.2906 21.1799 18.2109 21.0875C16.988 19.3389 15.2589 18.0068 13.2562 17.2703ZM4.81245 11.8125C4.81245 10.8607 5.0947 9.93023 5.6235 9.13882C6.1523 8.34741 6.90391 7.73058 7.78328 7.36633C8.66265 7.00209 9.63029 6.90678 10.5638 7.09247C11.4974 7.27817 12.3549 7.73651 13.0279 8.40955C13.7009 9.08259 14.1593 9.9401 14.345 10.8736C14.5307 11.8072 14.4354 12.7748 14.0711 13.6542C13.7069 14.5335 13.09 15.2851 12.2986 15.814C11.5072 16.3428 10.5768 16.625 9.62495 16.625C8.34859 16.625 7.12451 16.118 6.222 15.2155C5.31948 14.3129 4.81245 13.0889 4.81245 11.8125Z" fill="#EAEAEA"/>
<path d="M27.1359 21.0875C25.9061 19.341 24.1743 18.0097 22.1703 17.2703C23.348 16.4934 24.2434 15.3571 24.7234 14.0304C25.2034 12.7037 25.2423 11.2575 24.8343 9.90689C24.4263 8.55631 23.5932 7.37352 22.459 6.53446C21.3247 5.6954 19.9499 5.2449 18.5391 5.24998C17.9369 5.25318 17.3377 5.33405 16.7563 5.49061C16.5344 5.55671 16.3472 5.70704 16.2348 5.90941C16.1224 6.11178 16.0936 6.35012 16.1547 6.57342C16.1862 6.68408 16.2392 6.78744 16.3107 6.87759C16.3822 6.96774 16.4708 7.0429 16.5713 7.09878C16.6719 7.15466 16.7825 7.19015 16.8968 7.20322C17.0111 7.2163 17.1269 7.2067 17.2375 7.17498C17.6622 7.06171 18.0995 7.00291 18.5391 6.99998C19.8154 6.99998 21.0395 7.50701 21.942 8.40953C22.8445 9.31205 23.3516 10.5361 23.3516 11.8125C23.3516 13.0888 22.8445 14.3129 21.942 15.2154C21.0395 16.118 19.8154 16.625 18.5391 16.625C18.307 16.625 18.0844 16.7172 17.9203 16.8813C17.7563 17.0454 17.6641 17.2679 17.6641 17.5C17.6641 17.732 17.7563 17.9546 17.9203 18.1187C18.0844 18.2828 18.307 18.375 18.5391 18.375C19.9437 18.376 21.3276 18.7142 22.5742 19.3614C23.8209 20.0085 24.894 20.9456 25.7031 22.0937C25.7686 22.1878 25.8521 22.268 25.9489 22.3295C26.0456 22.391 26.1536 22.4326 26.2666 22.4519C26.3796 22.4713 26.4953 22.4679 26.607 22.4421C26.7187 22.4163 26.8242 22.3685 26.9172 22.3015C27.1066 22.1691 27.2359 21.9671 27.2769 21.7396C27.3179 21.5122 27.2672 21.2777 27.1359 21.0875Z" fill="#EAEAEA"/>
</svg>
