<?xml version="1.0" encoding="utf-8"?>
<!-- Generator: Adobe Illustrator 19.0.0, SVG Export Plug-In . SVG Version: 6.00 Build 0)  -->
<svg version="1.1" xmlns="http://www.w3.org/2000/svg" xmlns:xlink="http://www.w3.org/1999/xlink" x="0px" y="0px"
	 viewBox="0 0 100 100" style="enable-background:new 0 0 100 100;" xml:space="preserve">
<style type="text/css">
	.st0{display:none;}
	.st1{display:inline;}
</style>
<g id="Layer_4">
	<circle fill="#FFF" id="XMLID_29_" cx="50" cy="38.9" r="12.6"/>
	<path fill="#FFF" id="XMLID_18_" d="M50,85.8c16.6,0,25.9-1.4,24.3-9.3s-5-17.3-10-19.2c-3.4-1.3-7.9-1.9-14.2-1.9s-10.8,0.6-14.2,1.9
		c-5.1,1.9-8.4,11.3-10,19.2C24.1,84.4,33.4,85.8,50,85.8z"/>
	<g fill="#FFF" id="XMLID_20_">
		<path id="XMLID_24_" d="M41,30C41,30,41,30,41,30c-0.3,0.3-0.5,0.5-0.8,0.8C40.5,30.5,40.8,30.3,41,30z"/>
		<path id="XMLID_55_" d="M40.3,30.8c-0.5,0.6-1,1.3-1.4,2C39.3,32.1,39.7,31.5,40.3,30.8z"/>
		<path id="XMLID_56_" d="M41.5,24.9c-0.7-6.4-6-11.3-12.6-11.3c-7,0-12.6,5.7-12.6,12.6c0,7,5.7,12.6,12.6,12.6
			c1.7,0,3.3-0.3,4.7-0.9C34,32.4,37.1,27.6,41.5,24.9z"/>
	</g>
	<path fill="#FFF" id="XMLID_59_" d="M71,13.6c-6.5,0-11.9,5-12.6,11.3c4.5,2.7,7.5,7.5,7.8,13c1.5,0.6,3.1,0.9,4.7,0.9c7,0,12.6-5.7,12.6-12.6
		C83.7,19.3,78,13.6,71,13.6z"/>
	<path fill="#FFF" id="XMLID_14_" d="M50,85.8c16.6,0,25.9-1.4,24.3-9.3s-5-17.3-10-19.2c-3.4-1.3-7.9-1.9-14.2-1.9s-10.8,0.6-14.2,1.9
		c-5.1,1.9-8.4,11.3-10,19.2C24.1,84.4,33.4,85.8,50,85.8z"/>
	<g fill="#FFF" id="XMLID_19_">
		<path id="XMLID_35_" d="M34.4,53.7c1.8-0.7,3.8-1.2,6.2-1.5c-3.1-2.2-5.5-5.5-6.4-9.3c-1.6-0.1-3.3-0.2-5.2-0.2
			c-6.3,0-10.8,0.6-14.2,1.9c-5.1,1.9-8.4,11.3-10,19.2c-1.4,6.9,5.4,8.8,18,9.2C24.4,66,27.9,56.2,34.4,53.7z"/>
	</g>
	<g fill="#FFF" id="XMLID_15_">
		<path id="XMLID_58_" d="M95.3,63.8c-1.6-7.9-5-17.3-10-19.2c-3.4-1.3-7.9-1.9-14.2-1.9c-1.9,0-3.6,0.1-5.2,0.2
			c-1,3.8-3.3,7.1-6.4,9.3c2.3,0.4,4.4,0.9,6.2,1.5c6.5,2.5,10.1,12.3,11.8,19.3C89.9,72.7,96.7,70.7,95.3,63.8z"/>
	</g>
</g>
</svg>
