<svg width="28" height="28" viewBox="0 0 28 28" fill="none" xmlns="http://www.w3.org/2000/svg">
<path opacity="0.2" d="M18.375 15.3125C18.375 16.1778 18.1184 17.0237 17.6377 17.7431C17.157 18.4626 16.4737 19.0233 15.6742 19.3545C14.8748 19.6856 13.9951 19.7722 13.1465 19.6034C12.2978 19.4346 11.5183 19.0179 10.9064 18.4061C10.2946 17.7942 9.87788 17.0147 9.70907 16.166C9.54026 15.3174 9.62689 14.4377 9.95803 13.6383C10.2892 12.8388 10.8499 12.1556 11.5694 11.6748C12.2888 11.1941 13.1347 10.9375 14 10.9375C15.1603 10.9375 16.2731 11.3984 17.0936 12.2189C17.9141 13.0394 18.375 14.1522 18.375 15.3125ZM6.5625 5.6875C5.87027 5.6875 5.19358 5.89277 4.61801 6.27736C4.04243 6.66194 3.59383 7.20857 3.32892 7.84811C3.06402 8.48765 2.9947 9.19138 3.12975 9.87032C3.2648 10.5492 3.59814 11.1729 4.08763 11.6624C4.57711 12.1519 5.20075 12.4852 5.87969 12.6202C6.55862 12.7553 7.26235 12.686 7.90189 12.4211C8.54144 12.1562 9.08806 11.7076 9.47264 11.132C9.85723 10.5564 10.0625 9.87973 10.0625 9.1875C10.0625 8.25924 9.69375 7.369 9.03738 6.71263C8.381 6.05625 7.49076 5.6875 6.5625 5.6875ZM21.4375 5.6875C20.7453 5.6875 20.0686 5.89277 19.493 6.27736C18.9174 6.66194 18.4688 7.20857 18.2039 7.84811C17.939 8.48765 17.8697 9.19138 18.0048 9.87032C18.1398 10.5492 18.4731 11.1729 18.9626 11.6624C19.4521 12.1519 20.0758 12.4852 20.7547 12.6202C21.4336 12.7553 22.1374 12.686 22.7769 12.4211C23.4164 12.1562 23.9631 11.7076 24.3476 11.132C24.7322 10.5564 24.9375 9.87973 24.9375 9.1875C24.9375 8.25924 24.5688 7.369 23.9124 6.71263C23.256 6.05625 22.3658 5.6875 21.4375 5.6875Z" fill="#EAEAEA"/>
<path d="M27.2125 16.0125C27.0622 16.1283 26.8772 16.19 26.6875 16.1875C26.5517 16.1875 26.4177 16.1559 26.2962 16.0951C26.1747 16.0344 26.069 15.9462 25.9875 15.8375C25.4601 15.1286 24.7736 14.5534 23.9834 14.1583C23.1931 13.7631 22.3211 13.5591 21.4375 13.5625C21.2054 13.5625 20.9829 13.4703 20.8188 13.3062C20.6547 13.1421 20.5625 12.9196 20.5625 12.6875C20.5625 12.4554 20.6547 12.2329 20.8188 12.0688C20.9829 11.9047 21.2054 11.8125 21.4375 11.8125C21.9355 11.812 22.4231 11.6698 22.8433 11.4026C23.2635 11.1353 23.599 10.7541 23.8107 10.3033C24.0224 9.85257 24.1015 9.3509 24.0388 8.85687C23.9761 8.36285 23.7741 7.89686 23.4565 7.5133C23.1389 7.12974 22.7187 6.84444 22.2451 6.69071C21.7714 6.53697 21.2638 6.52115 20.7814 6.64508C20.2991 6.76901 19.862 7.02758 19.5211 7.39061C19.1802 7.75364 18.9496 8.20615 18.8563 8.69531C18.8393 8.81227 18.7988 8.92459 18.7372 9.02548C18.6756 9.12636 18.5942 9.21373 18.498 9.2823C18.4017 9.35087 18.2925 9.39922 18.1771 9.42445C18.0616 9.44967 17.9422 9.45124 17.8261 9.42905C17.71 9.40687 17.5996 9.3614 17.5016 9.29538C17.4035 9.22935 17.3199 9.14416 17.2557 9.04492C17.1915 8.94569 17.148 8.83447 17.128 8.71799C17.108 8.60151 17.1117 8.48217 17.1391 8.36718C17.2689 7.68668 17.5584 7.04673 17.9839 6.5C18.4094 5.95328 18.9586 5.51541 19.5864 5.22243C20.2142 4.92946 20.9025 4.78975 21.5949 4.81482C22.2872 4.83988 22.9637 5.02899 23.5686 5.3666C24.1735 5.7042 24.6897 6.18064 25.0745 6.7567C25.4593 7.33276 25.7019 7.99197 25.7821 8.68008C25.8624 9.36819 25.7781 10.0655 25.5362 10.7147C25.2943 11.3639 24.9016 11.9463 24.3906 12.4141C25.5798 12.9297 26.6131 13.748 27.3875 14.7875C27.4564 14.8794 27.5066 14.984 27.5351 15.0953C27.5636 15.2066 27.57 15.3225 27.5537 15.4362C27.5375 15.55 27.499 15.6594 27.4404 15.7583C27.3819 15.8572 27.3044 15.9435 27.2125 16.0125ZM21.0875 23.2422C21.1863 23.4515 21.1992 23.6911 21.1236 23.9098C21.048 24.1285 20.8898 24.3089 20.6828 24.4125C20.5621 24.4662 20.4321 24.496 20.3 24.5C20.1361 24.4989 19.9756 24.4522 19.8366 24.3654C19.6976 24.2785 19.5854 24.1547 19.5125 24.0078C19.0079 22.9757 18.2238 22.1059 17.2492 21.4976C16.2746 20.8892 15.1489 20.5667 14 20.5667C12.8512 20.5667 11.7254 20.8892 10.7508 21.4976C9.77626 22.1059 8.99206 22.9757 8.4875 24.0078C8.43729 24.1113 8.36718 24.2038 8.28117 24.2802C8.19516 24.3565 8.09494 24.4152 7.98624 24.4528C7.87755 24.4904 7.76251 24.5061 7.64771 24.4992C7.53291 24.4923 7.42059 24.4628 7.31719 24.4125C7.11025 24.3089 6.95206 24.1285 6.87643 23.9098C6.8008 23.6911 6.81375 23.4515 6.9125 23.2422C7.72569 21.5678 9.10496 20.235 10.8063 19.4797C9.93543 18.8122 9.29561 17.8887 8.97668 16.8389C8.65776 15.7891 8.67576 14.6657 9.02816 13.6266C9.38057 12.5876 10.0497 11.685 10.9414 11.0458C11.8332 10.4066 12.9028 10.0629 14 10.0629C15.0972 10.0629 16.1668 10.4066 17.0586 11.0458C17.9504 11.685 18.6194 12.5876 18.9718 13.6266C19.3242 14.6657 19.3422 15.7891 19.0233 16.8389C18.7044 17.8887 18.0646 18.8122 17.1938 19.4797C18.8951 20.235 20.2743 21.5678 21.0875 23.2422ZM14 18.8125C14.6922 18.8125 15.3689 18.6072 15.9445 18.2226C16.5201 17.8381 16.9687 17.2914 17.2336 16.6519C17.4985 16.0123 17.5678 15.3086 17.4328 14.6297C17.2977 13.9507 16.9644 13.3271 16.4749 12.8376C15.9854 12.3481 15.3618 12.0148 14.6828 11.8797C14.0039 11.7447 13.3002 11.814 12.6606 12.0789C12.0211 12.3438 11.4744 12.7924 11.0899 13.368C10.7053 13.9436 10.5 14.6203 10.5 15.3125C10.5029 16.2399 10.8726 17.1284 11.5283 17.7842C12.1841 18.4399 13.0726 18.8096 14 18.8125ZM7.4375 12.6875C7.4375 12.4554 7.34532 12.2329 7.18122 12.0688C7.01713 11.9047 6.79457 11.8125 6.5625 11.8125C6.06451 11.812 5.57695 11.6698 5.15673 11.4026C4.7365 11.1353 4.40096 10.7541 4.18928 10.3033C3.97759 9.85257 3.89849 9.3509 3.96121 8.85687C4.02394 8.36285 4.22589 7.89686 4.54351 7.5133C4.86112 7.12974 5.28128 6.84444 5.75495 6.69071C6.22862 6.53697 6.73624 6.52115 7.21857 6.64508C7.70089 6.76901 8.13801 7.02758 8.4789 7.39061C8.81979 7.75364 9.05038 8.20615 9.14375 8.69531C9.16073 8.81227 9.20123 8.92459 9.26281 9.02548C9.32439 9.12636 9.40577 9.21373 9.50204 9.2823C9.59831 9.35087 9.70748 9.39922 9.82295 9.42445C9.93842 9.44967 10.0578 9.45124 10.1739 9.42905C10.29 9.40687 10.4004 9.3614 10.4984 9.29538C10.5965 9.22935 10.6801 9.14416 10.7443 9.04492C10.8085 8.94569 10.852 8.83447 10.872 8.71799C10.892 8.60151 10.8883 8.48217 10.8609 8.36718C10.7311 7.68668 10.4416 7.04673 10.0161 6.5C9.59062 5.95328 9.0414 5.51541 8.41362 5.22243C7.78585 4.92946 7.09747 4.78975 6.40515 4.81482C5.71283 4.83988 5.03636 5.02899 4.43141 5.3666C3.82646 5.7042 3.31033 6.18064 2.92551 6.7567C2.54068 7.33276 2.29815 7.99197 2.21789 8.68008C2.13763 9.36819 2.22192 10.0655 2.46384 10.7147C2.70575 11.3639 3.09837 11.9463 3.60938 12.4141C2.42016 12.9297 1.38686 13.748 0.612504 14.7875C0.473265 14.9731 0.413479 15.2065 0.446298 15.4362C0.479117 15.666 0.601852 15.8733 0.787504 16.0125C0.937795 16.1283 1.12279 16.19 1.3125 16.1875C1.44834 16.1875 1.58232 16.1559 1.70382 16.0951C1.82531 16.0344 1.931 15.9462 2.0125 15.8375C2.5399 15.1286 3.22636 14.5534 4.01665 14.1583C4.80693 13.7631 5.67895 13.5591 6.5625 13.5625C6.79457 13.5625 7.01713 13.4703 7.18122 13.3062C7.34532 13.1421 7.4375 12.9196 7.4375 12.6875Z" fill="#EAEAEA"/>
</svg>
