<?xml version="1.0" encoding="utf-8"?>
<!-- Generator: Adobe Illustrator 19.0.0, SVG Export Plug-In . SVG Version: 6.00 Build 0)  -->
<svg version="1.1" xmlns="http://www.w3.org/2000/svg" xmlns:xlink="http://www.w3.org/1999/xlink" x="0px" y="0px"
	 viewBox="0 0 100 100" style="enable-background:new 0 0 100 100;" xml:space="preserve">
<style type="text/css">
	.st0{display:none;}
	.st1{display:inline;}
</style>
<g id="Layer_5">
	<path fill="#FFF" id="XMLID_25_" d="M50,90.8c16.6,0,25.9-1.4,24.3-9.3s-5-17.3-10-19.2c-3.4-1.3-7.9-1.9-14.2-1.9s-10.8,0.6-14.2,1.9
		c-5.1,1.9-8.4,11.3-10,19.2C24.1,89.4,33.4,90.8,50,90.8z"/>
	<g fill="#FFF" id="XMLID_101_">
		<path id="XMLID_102_" d="M44.8,28.4c1.6-0.5,3.4-0.9,5.2-0.9s3.5,0.3,5.2,0.9c1-4,3.5-7.5,6.8-9.7c-1.6-5.1-6.4-8.7-12-8.7
			c-5.6,0-10.4,3.7-12,8.7C41.4,20.9,43.8,24.3,44.8,28.4z"/>
		<path id="XMLID_110_" d="M45.3,32.1c1.1-0.4,2.2-0.7,3.4-0.8C47.5,31.4,46.4,31.7,45.3,32.1L45.3,32.1z"/>
	</g>
	<path fill="#FFF" id="XMLID_27_" d="M71,19.6c-6.2,0-11.4,4.5-12.4,10.4c4.6,2.9,7.7,8,7.7,13.9c0,0,0,0.1,0,0.1c1.5,0.6,3,0.9,4.7,0.9
		c7,0,12.6-5.7,12.6-12.6C83.7,25.3,78,19.6,71,19.6z"/>
	<g fill="#FFF" id="XMLID_21_">
		<path id="XMLID_33_" d="M40.3,35.8c-0.5,0.6-1,1.3-1.4,2C39.3,37.1,39.7,36.5,40.3,35.8z"/>
		<path id="XMLID_38_" d="M33.7,43.9c0-5.8,3.1-11,7.7-13.9c-1.1-5.9-6.2-10.4-12.4-10.4c-7,0-12.6,5.7-12.6,12.6
			c0,7,5.7,12.6,12.6,12.6C30.6,44.9,32.2,44.5,33.7,43.9C33.7,43.9,33.7,43.9,33.7,43.9z"/>
		<path id="XMLID_86_" d="M40.3,35.8c0.3-0.4,0.7-0.8,1.1-1.1c0,0,0,0,0,0C41,35,40.6,35.4,40.3,35.8z"/>
	</g>
	<circle fill="#FFF" id="XMLID_30_" cx="50" cy="43.9" r="12.6"/>
	<g fill="#FFF" id="XMLID_36_">
		<path id="XMLID_88_" d="M95.3,69.8c-1.6-7.9-5-17.3-10-19.2c-3.4-1.3-7.9-1.9-14.2-1.9c-2,0-3.8,0.1-5.5,0.2
			c-1.1,3.4-3.3,6.3-6.1,8.3c2.3,0.4,4.3,0.9,6.1,1.5c6.9,2.6,10.4,13.2,12,20.3C90,78.6,96.7,76.7,95.3,69.8z"/>
	</g>
	<circle fill="#FFF" id="XMLID_90_" cx="50" cy="43.9" r="12.6"/>
	<g fill="#FFF" id="XMLID_91_">
		<path id="XMLID_94_" d="M34.5,48.9c-1.7-0.1-3.5-0.2-5.5-0.2c-6.3,0-10.8,0.6-14.2,1.9c-5.1,1.9-8.4,11.3-10,19.2
			c-1.4,6.8,5.3,8.8,17.7,9.2c1.6-7.1,5.2-17.7,12-20.3c1.8-0.7,3.8-1.2,6.1-1.5C37.7,55.2,35.6,52.3,34.5,48.9z"/>
	</g>
</g>
</svg>
