<svg version="1.1" id="Layer_1" xmlns="http://www.w3.org/2000/svg" xmlns:xlink="http://www.w3.org/1999/xlink" x="0px" y="0px"
	 viewBox="-274 395.9 47 51" style="enable-background:new -274 395.9 47 51" xml:space="preserve">
<g>
	<path d="M-236.9,403.3c-1.9,0.7-6.3,1.8-11.4-0.2c-5.8-2.2-11.1-0.2-12.6,0.5c-0.3,0.1-0.5,0.4-0.5,0.7v13.2c0,0.5,0.5,0.9,1,0.7
		c1.9-0.7,6-1.6,11,0.6c5.7,2.5,11.4,0.6,13-0.1c0.3-0.1,0.5-0.4,0.5-0.7v-14C-235.9,403.5-236.4,403.1-236.9,403.3z"/>
	<path d="M-261.1,401.5c0-1.3-1-2.3-2.3-2.3c-1.3,0-2.3,1-2.3,2.3c0,0.8,0.4,1.5,1,1.9v39.5c0,0.6,0.5,1.1,1.1,1.1h0.2
		c0.7,0,1.2-0.5,1.1-1.1v-39.4C-261.6,403.1-261.1,402.4-261.1,401.5z"/>
</g>
</svg>
